<svg width="42" height="42" viewBox="0 0 42 42" fill="none" xmlns="http://www.w3.org/2000/svg">
<circle cx="21" cy="21" r="21" fill="#FA968E"/>
<path d="M2.48224 26L4.17259 15.8182H7.80185C8.59067 15.8182 9.22206 15.9541 9.69602 16.2259C10.1733 16.4943 10.5014 16.8688 10.6804 17.3494C10.8627 17.8267 10.9025 18.3802 10.7997 19.0099C10.6937 19.633 10.4699 20.1799 10.1286 20.6506C9.79048 21.1212 9.33807 21.4891 8.77131 21.7543C8.20786 22.0161 7.53172 22.147 6.7429 22.147H3.99361L4.2223 20.8246H6.83239C7.33286 20.8246 7.75047 20.7533 8.08523 20.6108C8.41998 20.4683 8.68182 20.2611 8.87074 19.9893C9.06297 19.7176 9.18892 19.3911 9.24858 19.0099C9.31155 18.6222 9.29332 18.2891 9.19389 18.0107C9.09446 17.7289 8.90057 17.5135 8.61222 17.3643C8.32386 17.2119 7.92779 17.1357 7.42401 17.1357H5.49503L4.01847 26H2.48224ZM8.26918 21.4062L10.0241 26H8.27415L6.56392 21.4062H8.26918ZM14.603 26.1541C13.8539 26.1541 13.2341 25.9934 12.7436 25.6719C12.2564 25.3471 11.915 24.8913 11.7195 24.3047C11.5239 23.7147 11.4924 23.0237 11.625 22.2315C11.7543 21.4493 12.0144 20.7599 12.4055 20.1634C12.7966 19.5668 13.2839 19.1011 13.8672 18.7663C14.4538 18.4316 15.1018 18.2642 15.8111 18.2642C16.242 18.2642 16.648 18.3355 17.0291 18.478C17.4136 18.6205 17.7401 18.8442 18.0085 19.1491C18.277 19.4541 18.4626 19.8501 18.5653 20.3374C18.6714 20.8213 18.6681 21.4096 18.5554 22.1023L18.4709 22.6293H12.3956L12.5696 21.5156H17.1832C17.2528 21.1245 17.2346 20.7782 17.1286 20.4766C17.0225 20.1716 16.8402 19.9313 16.5817 19.7557C16.3265 19.58 16.005 19.4922 15.6172 19.4922C15.2195 19.4922 14.8482 19.5966 14.5036 19.8054C14.1589 20.0142 13.8705 20.281 13.6385 20.6058C13.4098 20.9273 13.2656 21.2588 13.206 21.6001L13.032 22.6193C12.9458 23.1761 12.9607 23.6236 13.0767 23.9616C13.196 24.2997 13.4048 24.545 13.7031 24.6974C14.0014 24.8499 14.3743 24.9261 14.8217 24.9261C15.1101 24.9261 15.3769 24.8864 15.6222 24.8068C15.8707 24.724 16.0911 24.603 16.2834 24.4439C16.4756 24.2815 16.6364 24.0793 16.7656 23.8374L18.1278 24.0909C17.9455 24.5052 17.6837 24.8681 17.3423 25.1797C17.0009 25.4879 16.5982 25.7282 16.1342 25.9006C15.6735 26.0696 15.1631 26.1541 14.603 26.1541ZM22.7527 15.8182L21.0623 26H19.5758L21.2662 15.8182H22.7527ZM25.2646 26.169C24.7807 26.169 24.3581 26.0795 23.9968 25.9006C23.6355 25.7183 23.3687 25.4548 23.1964 25.1101C23.024 24.7654 22.9793 24.3428 23.0621 23.8423C23.1351 23.4115 23.2776 23.0568 23.4897 22.7784C23.7051 22.5 23.967 22.2796 24.2752 22.1172C24.5835 21.9515 24.9182 21.8272 25.2795 21.7443C25.6407 21.6615 26.0053 21.6001 26.3732 21.5604C26.8372 21.5073 27.2134 21.4626 27.5018 21.4261C27.7934 21.3897 28.0122 21.3333 28.158 21.2571C28.3039 21.1776 28.3917 21.0483 28.4215 20.8693V20.8345C28.4911 20.4036 28.4281 20.0689 28.2326 19.8303C28.0404 19.5883 27.7056 19.4673 27.2283 19.4673C26.7312 19.4673 26.3136 19.5767 25.9755 19.7955C25.6407 20.0142 25.3938 20.2595 25.2347 20.5312L23.9023 20.2131C24.141 19.7491 24.4442 19.3745 24.8121 19.0895C25.1834 18.8011 25.5894 18.5923 26.0302 18.4631C26.471 18.3305 26.9218 18.2642 27.3825 18.2642C27.6874 18.2642 28.0039 18.3007 28.332 18.3736C28.6602 18.4432 28.9585 18.5724 29.2269 18.7614C29.4987 18.9503 29.7009 19.2204 29.8335 19.5717C29.966 19.9197 29.9859 20.3722 29.8931 20.929L29.0529 26H27.6012L27.7802 24.956H27.7205C27.5946 25.1482 27.4189 25.3371 27.1935 25.5227C26.9715 25.7083 26.6997 25.8625 26.3782 25.9851C26.0567 26.1077 25.6855 26.169 25.2646 26.169ZM25.7717 24.9759C26.186 24.9759 26.5522 24.8946 26.8704 24.7322C27.1919 24.5698 27.4521 24.3577 27.6509 24.0959C27.8498 23.8307 27.9741 23.5473 28.0238 23.2457L28.1879 22.2614C28.1249 22.3144 28.0138 22.3625 27.8548 22.4055C27.699 22.4486 27.5233 22.4867 27.3278 22.5199C27.1322 22.553 26.94 22.5812 26.7511 22.6044C26.5655 22.6276 26.4113 22.6491 26.2887 22.669C25.997 22.7055 25.7236 22.7668 25.4684 22.853C25.2165 22.9392 25.006 23.0634 24.837 23.2259C24.668 23.3849 24.5619 23.5971 24.5188 23.8622C24.4592 24.2301 24.547 24.5085 24.7823 24.6974C25.021 24.883 25.3507 24.9759 25.7717 24.9759ZM35.7111 28.8636L36.3773 24.8118H36.2928C36.1768 24.9742 36.0177 25.1598 35.8155 25.3686C35.6133 25.5774 35.3532 25.7597 35.035 25.9155C34.7201 26.0713 34.3307 26.1491 33.8667 26.1491C33.2469 26.1491 32.7232 25.9917 32.2956 25.6768C31.8681 25.3587 31.5648 24.9062 31.3858 24.3196C31.2102 23.7296 31.1903 23.022 31.3262 22.1967C31.4621 21.3714 31.7173 20.6655 32.0918 20.0788C32.4663 19.4922 32.9204 19.0431 33.454 18.7315C33.9876 18.42 34.5627 18.2642 35.1792 18.2642C35.6531 18.2642 36.021 18.3438 36.2828 18.5028C36.548 18.6586 36.7435 18.8409 36.8695 19.0497C36.9954 19.2585 37.0899 19.4425 37.1529 19.6016H37.2722L37.486 18.3636H38.9377L37.1976 28.8636H35.7111ZM34.3986 24.8814C34.8295 24.8814 35.2123 24.7687 35.5471 24.5433C35.8818 24.3146 36.1586 23.9981 36.3773 23.5938C36.5994 23.1894 36.7551 22.7187 36.8446 22.1818C36.9341 21.6515 36.9341 21.1875 36.8446 20.7898C36.7585 20.392 36.5861 20.0821 36.3276 19.8601C36.0691 19.638 35.7244 19.527 35.2935 19.527C34.8427 19.527 34.4483 19.643 34.1103 19.875C33.7722 20.107 33.4954 20.4235 33.28 20.8246C33.0646 21.2256 32.9138 21.678 32.8276 22.1818C32.7447 22.6922 32.7464 23.1513 32.8326 23.5589C32.9187 23.9666 33.0911 24.2898 33.3496 24.5284C33.6114 24.7637 33.9611 24.8814 34.3986 24.8814Z" fill="black"/>
</svg>
